<?xml version="1.0" encoding="UTF-8" standalone="no"?>
<!DOCTYPE svg PUBLIC "-//W3C//DTD SVG 1.1//EN" "http://www.w3.org/Graphics/SVG/1.1/DTD/svg11.dtd">
<svg width="320px" height="320px" version="1.1" xmlns="http://www.w3.org/2000/svg" xmlns:xlink="http://www.w3.org/1999/xlink" xml:space="preserve" style="fill-rule:evenodd;clip-rule:evenodd;stroke-linejoin:round;stroke-miterlimit:1.41421;">
	<path d="M160,11c82.235,0 149,66.765 149,149c0,82.235 -66.765,149 -149,149c-82.235,0 -149,-66.765 -149,-149c0,-82.235 66.765,-149 149,-149Zm0,37.25c61.677,0 111.75,50.073 111.75,111.75c0,61.677 -50.073,111.75 -111.75,111.75c-61.677,0 -111.75,-50.073 -111.75,-111.75c0,-61.677 50.073,-111.75 111.75,-111.75Z" style="fill:#006652;"/>

	<path d="M160,11c82.235,0 149,66.765 149,149c0,82.235 -66.765,149 -149,149c-82.235,0 -149,-66.765 -149,-149c0,-82.235 66.765,-149 149,-149Zm0,37.25c61.677,0 111.75,50.073 111.75,111.75c0,61.677 -50.073,111.75 -111.75,111.75c-61.677,0 -111.75,-50.073 -111.75,-111.75c0,-61.677 50.073,-111.75 111.75,-111.75Z" style="fill:#2d2d2d;"/>

	<path d="M184.714,206.339l0,-15.446c0,-1.736 -1.353,-3.089 -3.089,-3.089l-9.268,0l0,-49.429c0,-1.736 -1.353,-3.089 -3.089,-3.089l-30.893,0c-1.736,0 -3.089,1.353 -3.089,3.089l0,15.446c0,1.737 1.353,3.09 3.089,3.09l9.268,0l0,30.893l-9.268,0c-1.736,0 -3.089,1.353 -3.089,3.089l0,15.446c0,1.736 1.353,3.09 3.089,3.09l43.25,0c1.736,0 3.089,-1.354 3.089,-3.09Zm-12.357,-86.5l0,-15.446c0,-1.736 -1.353,-3.089 -3.089,-3.089l-18.536,0c-1.736,0 -3.089,1.353 -3.089,3.089l0,15.446c0,1.736 1.353,3.09 3.089,3.09l18.536,0c1.736,0 3.089,-1.354 3.089,-3.09Zm61.786,40.161c0,40.933 -33.21,74.143 -74.143,74.143c-40.933,0 -74.143,-33.21 -74.143,-74.143c0,-40.933 33.21,-74.143 74.143,-74.143c40.933,0 74.143,33.21 74.143,74.143Z" style="fill:#2d2d2d;fill-rule:nonzero;"/>

	<path d="M184.714,206.339l0,-15.446c0,-1.736 -1.353,-3.089 -3.089,-3.089l-9.268,0l0,-49.429c0,-1.736 -1.353,-3.089 -3.089,-3.089l-30.893,0c-1.736,0 -3.089,1.353 -3.089,3.089l0,15.446c0,1.737 1.353,3.09 3.089,3.09l9.268,0l0,30.893l-9.268,0c-1.736,0 -3.089,1.353 -3.089,3.089l0,15.446c0,1.736 1.353,3.09 3.089,3.09l43.25,0c1.736,0 3.089,-1.354 3.089,-3.09Zm-12.357,-86.5l0,-15.446c0,-1.736 -1.353,-3.089 -3.089,-3.089l-18.536,0c-1.736,0 -3.089,1.353 -3.089,3.089l0,15.446c0,1.736 1.353,3.09 3.089,3.09l18.536,0c1.736,0 3.089,-1.354 3.089,-3.09Zm61.786,40.161c0,40.933 -33.21,74.143 -74.143,74.143c-40.933,0 -74.143,-33.21 -74.143,-74.143c0,-40.933 33.21,-74.143 74.143,-74.143c40.933,0 74.143,33.21 74.143,74.143Z" style="fill:#ff823d;fill-rule:nonzero;"/>
</svg>
